#Comment line ignore any data following # character 
#Hierarchical Translation and Rotation (.htr) file 
[Header]	
#Header keywords are followed by a single value 
FileType HTR		#Single word string
DataType HTRS		#Translation followed by rotation and scale data
FileVersion 1		#integer
NumSegments 64		#integer
NumFrames 3		#integer
DataFrameRate 30		#integer, data frame rate in this file
EulerRotationOrder ZYX
CalibrationUnits mm
RotationUnits Degrees
GlobalAxisofGravity Y
BoneLengthAxis Y
ScaleFactor 1.00
[SegmentNames&Hierarchy]
#CHILD	PARENT
Pinger_Root GLOBAL
Pelvis Pinger_Root
L_Hip Pelvis
R_Hip Pelvis
Rear_Leg01 Pelvis
Spine1 Pelvis
L_Leg01 L_Hip
L_Leg02 L_Leg01
L_Leg03 L_Leg02
L_Foot L_Leg03
L_Toe1_01 L_Foot
L_Toe2_01 L_Foot
L_Toe3_01 L_Foot
planeAlignerLeft L_Foot
L_Toe1_02 L_Toe1_01
L_Toe1_03 L_Toe1_02
L_Toe2_02 L_Toe2_01
L_Toe2_03 L_Toe2_02
L_Toe3_02 L_Toe3_01
L_Toe3_03 L_Toe3_02
planeLockWeightLeft planeAlignerLeft
R_Leg01 R_Hip
R_Leg02 R_Leg01
R_Leg03 R_Leg02
R_Foot R_Leg03
planeAlignerRight R_Foot
R_Toe1_01 R_Foot
R_Toe2_01 R_Foot
R_Toe3_01 R_Foot
planeLockWeightRight planeAlignerRight
R_Toe1_02 R_Toe1_01
R_Toe1_03 R_Toe1_02
R_Toe2_02 R_Toe2_01
R_Toe2_03 R_Toe2_02
R_Toe3_02 R_Toe3_01
R_Toe3_03 R_Toe3_02
Rear_Leg02 Rear_Leg01
Rear_Leg03 Rear_Leg02
Rear_Leg04 Rear_Leg03
Rear_Foot Rear_Leg04
planeAlignerCenter Rear_Foot
Rear_Toe1_01 Rear_Foot
Rear_Toe2_01 Rear_Foot
Rear_Toe3_01 Rear_Foot
planeLockWeightCenter planeAlignerCenter
Rear_Toe1_02 Rear_Toe1_01
Rear_Toe1_03 Rear_Toe1_02
Rear_Toe2_02 Rear_Toe2_01
Rear_Toe2_03 Rear_Toe2_02
Rear_Toe3_02 Rear_Toe3_01
Rear_Toe3_03 Rear_Toe3_02
Back_Bone Spine1
Head Spine1
Motor_Bone Back_Bone
Ping_Mechanism Back_Bone
BN_LookIK Head
bottomMouth Head
L_Mouth01 Head
L_mouthFront Head
mouthGun Head
R_Mouth01 Head
R_mouthFront Head
TopMouth Head
weapon_bone Head
[BasePosition]
#SegmentName Tx, Ty, Tz, Rx, Ry, Rz, BoneLength
Pinger_Root 0.000000 0.000000 0.000000 -90.000000 0.000000 0.000000 10.000000 
Pelvis 0.000000 0.000000 0.000000 0.000000 0.000000 0.000000 10.000000 
L_Hip 0.000000 0.000000 0.000000 0.000000 0.000000 0.000000 10.000000 
R_Hip 0.000000 0.000000 0.000000 0.000000 0.000000 0.000000 10.000000 
Rear_Leg01 0.000000 0.000000 0.000000 0.000000 0.000000 0.000000 10.000000 
Spine1 0.000000 0.000000 0.000000 0.000000 0.000000 0.000000 10.000000 
L_Leg01 0.000000 0.000000 0.000000 0.000000 0.000000 0.000000 10.000000 
L_Leg02 0.000000 0.000000 0.000000 0.000000 0.000000 0.000000 10.000000 
L_Leg03 0.000000 0.000000 0.000000 0.000000 0.000000 0.000000 10.000000 
L_Foot 0.000000 0.000000 0.000000 0.000000 0.000000 0.000000 10.000000 
L_Toe1_01 0.000000 0.000000 0.000000 0.000000 0.000000 0.000000 10.000000 
L_Toe2_01 0.000000 0.000000 0.000000 0.000000 0.000000 0.000000 10.000000 
L_Toe3_01 0.000000 0.000000 0.000000 0.000000 0.000000 0.000000 10.000000 
planeAlignerLeft 0.000000 0.000000 0.000000 0.000000 0.000000 0.000000 10.000000 
L_Toe1_02 0.000000 0.000000 0.000000 0.000000 0.000000 0.000000 10.000000 
L_Toe1_03 0.000000 0.000000 0.000000 0.000000 0.000000 0.000000 10.000000 
L_Toe2_02 0.000000 0.000000 0.000000 0.000000 0.000000 0.000000 10.000000 
L_Toe2_03 0.000000 0.000000 0.000000 0.000000 0.000000 0.000000 10.000000 
L_Toe3_02 0.000000 0.000000 0.000000 0.000000 0.000000 0.000000 10.000000 
L_Toe3_03 0.000000 0.000000 0.000000 0.000000 0.000000 0.000000 10.000000 
planeLockWeightLeft 0.000000 0.000000 0.000000 0.000000 0.000000 0.000000 10.000000 
R_Leg01 0.000000 0.000000 0.000000 0.000000 0.000000 0.000000 10.000000 
R_Leg02 0.000000 0.000000 0.000000 0.000000 0.000000 0.000000 10.000000 
R_Leg03 0.000000 0.000000 0.000000 0.000000 0.000000 0.000000 10.000000 
R_Foot 0.000000 0.000000 0.000000 0.000000 0.000000 0.000000 10.000000 
planeAlignerRight 0.000000 0.000000 0.000000 0.000000 0.000000 0.000000 10.000000 
R_Toe1_01 0.000000 0.000000 0.000000 0.000000 0.000000 0.000000 10.000000 
R_Toe2_01 0.000000 0.000000 0.000000 0.000000 0.000000 0.000000 10.000000 
R_Toe3_01 0.000000 0.000000 0.000000 0.000000 0.000000 0.000000 10.000000 
planeLockWeightRight 0.000000 0.000000 0.000000 0.000000 0.000000 0.000000 10.000000 
R_Toe1_02 0.000000 0.000000 0.000000 0.000000 0.000000 0.000000 10.000000 
R_Toe1_03 0.000000 0.000000 0.000000 0.000000 0.000000 0.000000 10.000000 
R_Toe2_02 0.000000 0.000000 0.000000 0.000000 0.000000 0.000000 10.000000 
R_Toe2_03 0.000000 0.000000 0.000000 0.000000 0.000000 0.000000 10.000000 
R_Toe3_02 0.000000 0.000000 0.000000 0.000000 0.000000 0.000000 10.000000 
R_Toe3_03 0.000000 0.000000 0.000000 0.000000 0.000000 0.000000 10.000000 
Rear_Leg02 0.000000 0.000000 0.000000 0.000000 0.000000 0.000000 10.000000 
Rear_Leg03 0.000000 0.000000 0.000000 0.000000 0.000000 0.000000 10.000000 
Rear_Leg04 0.000000 0.000000 0.000000 0.000000 0.000000 0.000000 10.000000 
Rear_Foot 0.000000 0.000000 0.000000 0.000000 0.000000 0.000000 10.000000 
planeAlignerCenter 0.000000 0.000000 0.000000 0.000000 0.000000 0.000000 10.000000 
Rear_Toe1_01 0.000000 0.000000 0.000000 0.000000 0.000000 0.000000 10.000000 
Rear_Toe2_01 0.000000 0.000000 0.000000 0.000000 0.000000 0.000000 10.000000 
Rear_Toe3_01 0.000000 0.000000 0.000000 0.000000 0.000000 0.000000 10.000000 
planeLockWeightCenter 0.000000 0.000000 0.000000 0.000000 0.000000 0.000000 10.000000 
Rear_Toe1_02 0.000000 0.000000 0.000000 0.000000 0.000000 0.000000 10.000000 
Rear_Toe1_03 0.000000 0.000000 0.000000 0.000000 0.000000 0.000000 10.000000 
Rear_Toe2_02 0.000000 0.000000 0.000000 0.000000 0.000000 0.000000 10.000000 
Rear_Toe2_03 0.000000 0.000000 0.000000 0.000000 0.000000 0.000000 10.000000 
Rear_Toe3_02 0.000000 0.000000 0.000000 0.000000 0.000000 0.000000 10.000000 
Rear_Toe3_03 0.000000 0.000000 0.000000 0.000000 0.000000 0.000000 10.000000 
Back_Bone 0.000000 0.000000 0.000000 0.000000 0.000000 0.000000 10.000000 
Head 0.000000 0.000000 0.000000 0.000000 0.000000 0.000000 10.000000 
Motor_Bone 0.000000 0.000000 0.000000 0.000000 0.000000 0.000000 10.000000 
Ping_Mechanism 0.000000 0.000000 0.000000 0.000000 0.000000 0.000000 10.000000 
BN_LookIK 0.000000 0.000000 0.000000 0.000000 0.000000 0.000000 10.000000 
bottomMouth 0.000000 0.000000 0.000000 0.000000 0.000000 0.000000 10.000000 
L_Mouth01 0.000000 0.000000 0.000000 0.000000 0.000000 0.000000 10.000000 
L_mouthFront 0.000000 0.000000 0.000000 0.000000 0.000000 0.000000 10.000000 
mouthGun 0.000000 0.000000 0.000000 0.000000 0.000000 0.000000 10.000000 
R_Mouth01 0.000000 0.000000 0.000000 0.000000 0.000000 0.000000 10.000000 
R_mouthFront 0.000000 0.000000 0.000000 0.000000 0.000000 0.000000 10.000000 
TopMouth 0.000000 0.000000 0.000000 0.000000 0.000000 0.000000 10.000000 
weapon_bone 0.000000 0.000000 0.000000 0.000000 0.000000 0.000000 10.000000 
#Beginning of Data. Separated by tabs
#Fr	Tx	Ty	Tz	Rx	Ry	Rz	SF
[Pinger_Root]
54 0.000000 0.000000 0.000000 0.000000 -0.000000 -90.000000 0.000000
55 0.000000 0.000000 0.000000 0.000000 -0.000000 -90.000000 0.000000
56 0.000000 0.000000 0.000000 0.000000 -0.000000 -90.000000 0.000000
[Pelvis]
54 48.355938 809.275757 4432.232422 -100.367996 -85.972794 92.964424 4505.768066
55 60.834805 865.676697 4432.232422 -100.366486 -85.972557 92.892403 4516.390137
56 69.186531 903.026672 4432.232422 -100.365074 -85.972359 92.820213 4523.817871
[L_Hip]
54 5.766392 125.831482 872.656799 160.158691 -45.484905 122.312202 881.701050
55 5.766392 125.831482 872.656799 160.158691 -45.484905 122.312202 881.701050
56 5.766392 125.831482 872.656799 160.158691 -45.484905 122.312202 881.701050
[R_Hip]
54 5.765438 125.836372 -872.654907 38.087841 49.812687 125.703735 881.699829
55 5.765438 125.836372 -872.654907 38.087841 49.812687 125.703735 881.699829
56 5.765438 125.836372 -872.654907 38.087841 49.812687 125.703735 881.699829
[Rear_Leg01]
54 -192.298416 -925.602966 -0.001907 169.825546 2.109428 -160.693115 945.367432
55 -192.298416 -925.602966 -0.001907 169.762573 2.043717 -160.241364 945.367432
56 -192.298416 -925.602966 -0.001907 169.699081 1.978503 -159.789566 945.367432
[Spine1]
54 290.604584 5.007505 0.000477 6.773131 -0.581703 19.378847 290.647736
55 290.604584 5.007505 0.000477 6.937327 -0.594571 19.341539 290.647736
56 290.604584 5.007505 0.000477 7.101530 -0.607332 19.304193 290.647736
[L_Leg01]
54 761.932007 -0.002384 -0.069261 22.124310 -16.490459 -9.218906 761.932068
55 761.932007 -0.002384 -0.069261 22.504711 -16.047010 -9.062610 761.932068
56 761.932007 -0.002384 -0.069261 22.661005 -15.871016 -9.057581 761.932068
[L_Leg02]
54 1441.140503 -0.000954 -0.000715 2.378624 -0.178552 -126.901405 1441.140503
55 1441.140503 -0.000954 -0.000715 2.497853 -0.184514 -128.047852 1441.140503
56 1441.140503 -0.000954 -0.000715 2.578893 -0.185212 -128.766937 1441.140503
[L_Leg03]
54 1686.963989 -0.000715 -0.000954 -0.028463 0.012065 117.712700 1686.963989
55 1686.963989 -0.000715 -0.000954 -0.028959 0.012948 117.854782 1686.963989
56 1686.963989 -0.000715 -0.000954 -0.029453 0.013833 117.996872 1686.963989
[L_Foot]
54 3041.570068 -30.715107 11.297464 2.692220 13.089144 53.598969 3041.746094
55 3041.570068 -30.715107 11.297464 2.303289 13.088532 54.594193 3041.746094
56 3041.570068 -30.715107 11.297464 2.045701 13.085335 55.240063 3041.746094
[L_Toe1_01]
54 -188.216690 -224.732346 -21.137953 93.719086 -6.862507 -171.970444 293.899567
55 -188.216690 -224.732346 -21.137953 93.719086 -6.862507 -171.970444 293.899567
56 -188.216690 -224.732346 -21.137953 93.719086 -6.862505 -171.970444 293.899567
[L_Toe2_01]
54 200.746536 -219.926590 148.838394 -90.023987 -26.311703 -52.677628 332.896027
55 200.746536 -219.926590 148.838394 -90.023987 -26.311703 -52.677628 332.896027
56 200.746536 -219.926590 148.838394 -90.023987 -26.311703 -52.677628 332.896027
[L_Toe3_01]
54 188.832520 -219.859131 -191.078659 -99.788055 13.839005 -67.673027 347.140900
55 188.832520 -219.859131 -191.078659 -99.788055 13.839005 -67.673027 347.140900
56 188.832520 -219.859131 -191.078659 -99.788055 13.839008 -67.673027 347.140900
[planeAlignerLeft]
54 33.185547 -593.098022 100.921387 169.306686 -76.298271 89.968506 602.537720
55 33.185303 -593.098145 100.920959 169.306686 -76.298271 89.968506 602.537720
56 33.185059 -593.098328 100.920525 169.306686 -76.298271 89.968506 602.537842
[L_Toe1_02]
54 413.761139 0.000477 0.000000 0.001384 -26.012926 0.001384 413.761139
55 413.761139 0.000477 0.000000 0.001384 -26.012926 0.001384 413.761139
56 413.761139 0.000477 0.000000 0.001384 -26.012926 0.001384 413.761139
[L_Toe1_03]
54 464.317322 0.000358 -0.000089 0.003734 53.359097 0.003734 464.317322
55 464.317322 0.000358 -0.000089 0.003734 53.359097 0.003734 464.317322
56 464.317322 0.000358 -0.000089 0.003734 53.359097 0.003734 464.317322
[L_Toe2_02]
54 342.235809 -0.000477 0.000238 0.001188 -72.402016 0.001188 342.235809
55 342.235809 -0.000477 0.000238 0.001188 -72.402016 0.001188 342.235809
56 342.235809 -0.000477 0.000238 0.001188 -72.402016 0.001188 342.235809
[L_Toe2_03]
54 420.210846 -0.000715 0.000000 0.029090 85.375511 0.029090 420.210846
55 420.210846 -0.000715 0.000000 0.029090 85.375511 0.029090 420.210846
56 420.210846 -0.000715 0.000000 0.029090 85.375511 0.029090 420.210846
[L_Toe3_02]
54 329.270111 0.000954 0.000000 0.001178 -80.480331 0.001178 329.270111
55 329.270111 0.000954 0.000000 0.001178 -80.480331 0.001178 329.270111
56 329.270111 0.000954 0.000000 0.001178 -80.480331 0.001178 329.270111
[L_Toe3_03]
54 439.137451 -0.001907 0.000954 -179.995956 78.605698 -179.992447 439.137451
55 439.137451 -0.001907 0.000954 -179.995956 78.605698 -179.992447 439.137451
56 439.137451 -0.001907 0.000954 -179.995956 78.605667 -179.992447 439.137451
[planeLockWeightLeft]
54 1000.000122 0.097961 0.076055 -0.011826 -0.004376 0.005620 1000.000122
55 1000.000122 0.097961 0.076033 -0.011826 -0.004376 0.005620 1000.000122
56 1000.000244 0.097961 0.076011 -0.011826 -0.004376 0.005620 1000.000244
[R_Leg01]
54 761.455627 -0.001907 -0.000358 120.571556 -8.569902 35.269001 761.455688
55 761.455627 -0.001907 -0.000358 120.432671 -8.439021 35.390850 761.455688
56 761.455627 -0.001907 -0.000358 120.294128 -8.307843 35.512341 761.455688
[R_Leg02]
54 1441.140625 0.000000 -0.000238 -1.248705 -0.158988 -116.416672 1441.140625
55 1441.140625 0.000000 -0.000238 -1.295973 -0.178515 -117.755402 1441.140625
56 1441.140625 0.000000 -0.000238 -1.328508 -0.196734 -118.602333 1441.140625
[R_Leg03]
54 1686.963989 0.000954 0.001431 0.073947 -0.038659 130.755829 1686.963989
55 1686.963989 0.000954 0.001431 0.074558 -0.040299 130.973175 1686.963989
56 1686.963989 0.000954 0.001431 0.075162 -0.041941 131.190521 1686.963989
[R_Foot]
54 3041.560059 -30.531288 -11.204481 -0.434675 -24.612871 52.777267 3041.734131
55 3041.560059 -30.531288 -11.204481 -0.484546 -24.652517 54.207851 3041.734131
56 3041.560059 -30.531288 -11.204481 -0.523096 -24.677933 55.045135 3041.734131
[planeAlignerRight]
54 -126.665550 -573.694153 -312.448700 -36.577137 -71.339012 -64.343925 665.427185
55 -126.668335 -573.878784 -312.447266 -36.577137 -71.339012 -64.343925 665.586243
56 -126.671104 -574.063293 -312.445831 -36.577137 -71.339012 -64.343925 665.745178
[R_Toe1_01]
54 -188.383347 -224.864899 21.052242 76.763252 -0.414028 -172.735382 294.101532
55 -188.383347 -224.864899 21.052242 76.763351 -0.414217 -172.733154 294.101532
56 -188.383347 -224.864899 21.052242 76.763443 -0.414406 -172.730927 294.101532
[R_Toe2_01]
54 200.637817 -220.002121 -148.787384 -91.741013 32.875885 -59.177135 332.857574
55 200.637817 -220.002121 -148.787384 -91.741783 32.875210 -59.178829 332.857574
56 200.637817 -220.002121 -148.787384 -91.742508 32.874516 -59.180489 332.857574
[R_Toe3_01]
54 188.606735 -220.092957 191.126343 -73.226822 -8.456277 -73.750946 347.192566
55 188.606735 -220.092957 191.126343 -73.226540 -8.456470 -73.752686 347.192566
56 188.606735 -220.092957 191.126343 -73.226265 -8.456660 -73.754417 347.192566
[planeLockWeightRight]
54 999.999146 -0.000026 0.075915 -0.011823 -0.004379 -0.000027 999.999146
55 999.999084 -0.000017 0.075918 -0.011823 -0.004379 -0.000027 999.999084
56 999.999084 -0.000009 0.075920 -0.011823 -0.004379 -0.000027 999.999084
[R_Toe1_02]
54 413.762085 0.000477 -0.000119 0.001394 -24.659479 0.001394 413.762085
55 413.762085 0.000477 -0.000119 0.001394 -24.659479 0.001394 413.762085
56 413.762085 0.000477 -0.000119 0.001394 -24.659479 0.001394 413.762085
[R_Toe1_03]
54 464.317810 0.000000 0.001088 0.006627 69.597878 0.006627 464.317810
55 464.317810 0.000000 0.001088 0.006626 69.596367 0.006626 464.317810
56 464.317810 0.000000 0.001088 0.006626 69.594864 0.006626 464.317810
[R_Toe2_02]
54 342.234741 -0.000954 0.000238 0.001197 -67.219788 0.001197 342.234741
55 342.234741 -0.000954 0.000238 0.001197 -67.218277 0.001197 342.234741
56 342.234741 -0.000954 0.000238 0.001197 -67.216797 0.001197 342.234741
[R_Toe2_03]
54 420.210846 0.000715 -0.000268 0.008264 73.671829 0.008264 420.210846
55 420.210846 0.000715 -0.000268 0.008254 73.651901 0.008254 420.210846
56 420.210846 0.000715 -0.000268 0.008244 73.632027 0.008244 420.210846
[R_Toe3_02]
54 329.270355 -0.000477 -0.000954 0.001184 -74.523285 0.001184 329.270355
55 329.270355 -0.000477 -0.000954 0.001184 -74.521751 0.001184 329.270355
56 329.270355 -0.000477 -0.000954 0.001184 -74.520164 0.001184 329.270355
[R_Toe3_03]
54 439.137939 0.000238 0.001431 -0.011605 83.312637 -0.008103 439.137939
55 439.137939 0.000238 0.001431 -0.011599 83.308540 -0.008097 439.137939
56 439.137939 0.000238 0.001431 -0.011593 83.304405 -0.008091 439.137939
[Rear_Leg02]
54 1162.777710 -0.029802 0.005960 0.812947 -2.869697 -127.408340 1162.777710
55 1162.777710 -0.029802 0.005960 0.719954 -2.893537 -125.471916 1162.777710
56 1162.777710 -0.029802 0.005960 0.657950 -2.914110 -124.169632 1162.777710
[Rear_Leg03]
54 607.192505 -0.013351 -0.073195 0.010594 -0.004893 65.941193 607.192505
55 607.192505 -0.013351 -0.073195 0.010628 -0.004817 65.123795 607.192505
56 607.192505 -0.013351 -0.073195 0.008554 -0.003462 64.792847 607.192505
[Rear_Leg04]
54 995.874512 -0.020504 -0.011921 -0.043424 -0.018339 61.273853 995.874573
55 995.874512 -0.020504 -0.011921 -0.043193 -0.018875 59.853516 995.874573
56 995.874512 -0.020504 -0.011921 -0.040605 -0.014925 58.908443 995.874573
[Rear_Foot]
54 3096.176270 -0.067472 -0.041425 -139.814407 86.069160 51.610619 3096.176270
55 3096.176270 -0.067472 -0.041425 -141.624817 85.931427 50.379665 3096.176270
56 3096.176270 -0.067472 -0.041425 -143.334625 85.790901 49.249180 3096.176270
[planeAlignerCenter]
54 0.153130 -15.096959 -777.191528 12.240772 -0.001473 179.998184 777.338196
55 0.153108 -15.096785 -777.189514 12.240769 -0.001473 179.998184 777.336121
56 0.153087 -15.096609 -777.187500 12.240773 -0.001473 179.998184 777.334167
[Rear_Toe1_01]
54 0.653352 83.966492 -371.173737 0.294716 41.915726 90.415092 380.553192
55 0.653352 83.966492 -371.173737 0.295432 41.915173 90.415558 380.553192
56 0.653352 83.966492 -371.173737 0.296147 41.914635 90.416039 380.553192
[Rear_Toe2_01]
54 178.200760 -294.826019 -362.060547 -7.196267 34.406261 -66.271294 499.765686
55 178.200760 -294.826019 -362.060547 -7.196267 34.406261 -66.271294 499.765686
56 178.200760 -294.826019 -362.060547 -7.196267 34.406261 -66.271294 499.765686
[Rear_Toe3_01]
54 -153.359680 -308.780914 -362.060852 3.289418 33.518005 -112.540970 499.952881
55 -153.359680 -308.780914 -362.060852 3.289418 33.518005 -112.540970 499.952881
56 -153.359680 -308.780914 -362.060852 3.289418 33.518005 -112.540970 499.952881
[planeLockWeightCenter]
54 1000.000000 0.000610 0.076225 -0.011814 -0.004373 -0.000015 1000.000000
55 1000.000000 0.000610 0.076232 -0.011814 -0.004373 -0.000015 1000.000000
56 1000.000000 0.000610 0.076239 -0.011814 -0.004373 -0.000015 1000.000000
[Rear_Toe1_02]
54 379.707825 0.194073 0.000477 -0.000242 -31.676744 0.006934 379.707855
55 379.707825 0.194073 0.000477 -0.000242 -31.676744 0.006934 379.707855
56 379.707825 0.194073 0.000477 -0.000242 -31.676744 0.006934 379.707855
[Rear_Toe1_03]
54 500.129700 0.165701 0.000119 -0.000103 51.902485 0.007295 500.129761
55 500.129700 0.165701 0.000119 -0.000103 51.902481 0.007295 500.129761
56 500.129700 0.165701 0.000119 -0.000103 51.902485 0.007295 500.129761
[Rear_Toe2_02]
54 340.494507 0.000238 -0.000954 0.001192 -69.854523 0.001192 340.494507
55 340.494507 0.000238 -0.000954 0.001192 -69.854523 0.001192 340.494507
56 340.494507 0.000238 -0.000954 0.001192 -69.854523 0.001192 340.494507
[Rear_Toe2_03]
54 433.103577 0.000000 0.000238 0.006696 69.810326 0.006696 433.103546
55 433.103577 0.000000 0.000238 0.006696 69.810326 0.006696 433.103546
56 433.103577 0.000000 0.000238 0.006696 69.810326 0.006696 433.103546
[Rear_Toe3_02]
54 340.494141 -0.000358 -0.000477 0.008316 -67.348007 -0.009489 340.494171
55 340.494141 -0.000358 -0.000477 0.008307 -67.323601 -0.009479 340.494171
56 340.494141 -0.000358 -0.000477 0.008297 -67.299149 -0.009470 340.494171
[Rear_Toe3_03]
54 433.103577 0.001431 -0.000238 -0.000972 65.958984 -0.004547 433.103546
55 433.103577 0.001431 -0.000238 -0.000972 65.958961 -0.004547 433.103546
56 433.103577 0.001431 -0.000238 -0.000972 65.959007 -0.004547 433.103546
[Back_Bone]
54 1312.175781 -701.934692 0.000954 0.000023 -0.000007 -85.606667 1488.125488
55 1312.175781 -701.934692 0.000954 0.000023 -0.000007 -85.606667 1488.125488
56 1312.175781 -701.934692 0.000954 0.000023 -0.000007 -85.606667 1488.125488
[Head]
54 1406.159424 809.709290 0.001431 0.000008 0.000003 7.767519 1622.625488
55 1406.159424 809.709290 0.001431 0.000008 0.000003 7.767519 1622.625488
56 1406.159424 809.709290 0.001431 0.000008 0.000003 7.767519 1622.625488
[Motor_Bone]
54 1158.364380 -417.834747 0.000477 -0.095385 0.076104 -105.915703 1231.419434
55 1158.364380 -417.834747 0.000477 -0.095385 0.076104 -105.915703 1231.419434
56 1158.364380 -417.834747 0.000477 -0.095385 0.076104 -105.915703 1231.419434
[Ping_Mechanism]
54 1233.721436 -441.808105 -0.507026 0.000103 -0.000053 82.120995 1310.443970
55 1233.729004 -441.795837 -0.444517 0.000103 -0.000053 82.120995 1310.446899
56 1233.736450 -441.783508 -0.382009 0.000103 -0.000053 82.120995 1310.449585
[BN_LookIK]
54 193.241119 1380.371704 -0.002861 0.000000 89.965736 -31.038179 1393.832153
55 193.241119 1380.371704 -0.002861 0.000000 89.965736 -31.038179 1393.832153
56 193.241119 1380.371704 -0.002861 0.000000 89.965736 -31.038179 1393.832153
[bottomMouth]
54 -435.092926 615.759399 -0.000954 -0.000022 0.000016 73.527184 753.966492
55 -435.092926 615.759399 -0.000954 -0.000022 0.000016 73.527184 753.966492
56 -435.092926 615.759399 -0.000954 -0.000022 0.000016 73.527184 753.966492
[L_Mouth01]
54 554.440979 7.658243 838.222046 150.204178 23.759130 109.605339 1005.027161
55 554.440979 7.658243 838.222046 150.204178 23.759130 109.605339 1005.027161
56 554.440979 7.658243 838.222046 150.204178 23.759130 109.605339 1005.027161
[L_mouthFront]
54 551.629089 934.514771 339.150421 0.000081 2.804060 79.119301 1136.941284
55 551.629089 934.514771 339.150421 0.000081 2.804060 79.119301 1136.941284
56 551.629089 934.514771 339.150421 0.000081 2.804060 79.119301 1136.941284
[mouthGun]
54 55.332661 1627.420898 0.000000 0.000023 0.000009 -11.038128 1628.361328
55 55.332661 1627.420898 0.000000 0.000023 0.000009 -11.038128 1628.361328
56 55.332661 1627.420898 0.000000 0.000023 0.000009 -11.038128 1628.361328
[R_Mouth01]
54 554.442383 7.659197 -838.223938 29.795891 -23.759109 109.605331 1005.029541
55 554.442383 7.659197 -838.223938 29.795891 -23.759109 109.605331 1005.029541
56 554.442383 7.659197 -838.223938 29.795891 -23.759109 109.605331 1005.029541
[R_mouthFront]
54 551.629089 934.514282 -339.151367 0.000029 -2.803930 79.119133 1136.941162
55 551.629089 934.514282 -339.151367 0.000029 -2.803930 79.119133 1136.941162
56 551.629089 934.514282 -339.151367 0.000029 -2.803930 79.119133 1136.941162
[TopMouth]
54 461.269867 -56.106091 -0.008583 -0.000059 -0.000268 92.025169 464.669525
55 461.269867 -56.106091 -0.008583 -0.000059 -0.000268 92.025169 464.669525
56 461.269867 -56.106091 -0.008583 -0.000059 -0.000268 92.025169 464.669525
[weapon_bone]
54 -987.239868 1448.372803 0.001431 0.000000 89.965736 -31.038221 1752.833740
55 -987.239868 1448.372803 0.001431 0.000000 89.965736 -31.038221 1752.833740
56 -987.239868 1448.372803 0.001431 0.000000 89.965736 -31.038221 1752.833740
